<?xml version="1.0" encoding="utf-8"?>
<!-- Uploaded to: SVG Repo, www.svgrepo.com, Generator: SVG Repo Mixer Tools -->
<svg width="800px" height="800px" viewBox="0 0 1024 1024" class="icon"  version="1.1" xmlns="http://www.w3.org/2000/svg"><path d="M327.3 261.6h-99.7c-35.8 0-65.1-29.3-65.1-65.1s29.3-65.1 65.1-65.1h99.7c35.8 0 65.1 29.3 65.1 65.1s-29.3 65.1-65.1 65.1z" fill="#FAFCFB" /><path d="M327.3 274.6h-99.7c-43.1 0-78.1-35-78.1-78.1s35-78.1 78.1-78.1h99.7c43.1 0 78.1 35 78.1 78.1s-35 78.1-78.1 78.1z m-99.7-130.2c-28.7 0-52.1 23.4-52.1 52.1s23.4 52.1 52.1 52.1h99.7c28.7 0 52.1-23.4 52.1-52.1s-23.4-52.1-52.1-52.1h-99.7z" fill="#0F0F0F" /><path d="M908.8 900.8H117.2c-46.9 0-84.8-38-84.8-84.8V279.4c0-46.9 38-84.8 84.8-84.8h791.6c46.9 0 84.8 38 84.8 84.8V816c0 46.8-37.9 84.8-84.8 84.8z" fill="#FAFCFB" /><path d="M908.8 913.8H117.2c-53.9 0-97.8-43.9-97.8-97.8V279.4c0-53.9 43.9-97.8 97.8-97.8h791.6c53.9 0 97.8 43.9 97.8 97.8V816c0 53.9-43.9 97.8-97.8 97.8zM117.2 207.5c-39.6 0-71.8 32.2-71.8 71.8V816c0 39.6 32.2 71.8 71.8 71.8h791.6c39.6 0 71.8-32.2 71.8-71.8V279.4c0-39.6-32.2-71.8-71.8-71.8H117.2z" fill="#0F0F0F" /><path d="M30.7 468.4H992v277.5H30.7z" fill="#9DC6AF" /><path d="M1005 759H17.7V455.4H1005V759zM43.7 733H979V481.4H43.7V733z" fill="#191919" /><path d="M511.3 604m-212.3 0a212.3 212.3 0 1 0 424.6 0 212.3 212.3 0 1 0-424.6 0Z" fill="#FAFCFB" /><path d="M511.3 829.3c-60.2 0-116.8-23.4-159.3-66-42.6-42.6-66-99.1-66-159.3s23.4-116.8 66-159.3c42.6-42.6 99.1-66 159.3-66 60.2 0 116.8 23.4 159.3 66 42.6 42.6 66 99.1 66 159.3s-23.4 116.8-66 159.3c-42.5 42.6-99.1 66-159.3 66z m0-424.6C401.4 404.7 312 494.1 312 604s89.4 199.3 199.3 199.3S710.6 713.9 710.6 604s-89.4-199.3-199.3-199.3z" fill="#0F0F0F" /><path d="M511.3 604m-141.9 0a141.9 141.9 0 1 0 283.8 0 141.9 141.9 0 1 0-283.8 0Z" fill="#D39E33" /><path d="M511.3 759c-85.4 0-154.9-69.5-154.9-154.9s69.5-154.9 154.9-154.9 155 69.4 155 154.8-69.5 155-155 155z m0-283.9c-71.1 0-128.9 57.8-128.9 128.9s57.8 129 128.9 129c71.1 0 128.9-57.8 128.9-128.9s-57.8-129-128.9-129z" fill="#0C0C0C" /><path d="M874.6 317.4h-79c-15.3 0-27.9-12.6-27.9-27.9 0-15.3 12.6-27.9 27.9-27.9h79c15.3 0 27.9 12.6 27.9 27.9 0 15.3-12.5 27.9-27.9 27.9z" fill="#9DC6AF" /><path d="M874.6 330.4h-79c-22.5 0-40.9-18.3-40.9-40.9s18.3-40.9 40.9-40.9h79c22.5 0 40.9 18.3 40.9 40.9s-18.3 40.9-40.9 40.9z m-79-55.8c-8.2 0-14.9 6.7-14.9 14.9s6.7 14.9 14.9 14.9h79c8.2 0 14.9-6.7 14.9-14.9s-6.7-14.9-14.9-14.9h-79z" fill="#191919" /></svg>