<?xml version="1.0" encoding="UTF-8" standalone="no"?>
<!-- Uploaded to: SVG Repo, www.svgrepo.com, Generator: SVG Repo Mixer Tools -->

<svg
   fill="#000000"
   height="24"
   width="24"
   version="1.1"
   id="Layer_1"
   viewBox="0 0 13.95 13.95"
   xml:space="preserve"
   sodipodi:docname="import_gcp_from_file.svg"
   inkscape:version="1.3.2 (091e20e, 2023-11-25, custom)"
   inkscape:export-filename="import_gcp_from_file.png"
   inkscape:export-xdpi="96"
   inkscape:export-ydpi="96"
   xmlns:inkscape="http://www.inkscape.org/namespaces/inkscape"
   xmlns:sodipodi="http://sodipodi.sourceforge.net/DTD/sodipodi-0.dtd"
   xmlns="http://www.w3.org/2000/svg"
   xmlns:svg="http://www.w3.org/2000/svg"><defs
   id="defs1" /><sodipodi:namedview
   id="namedview1"
   pagecolor="#ffffff"
   bordercolor="#000000"
   borderopacity="0.25"
   inkscape:showpageshadow="2"
   inkscape:pageopacity="0.0"
   inkscape:pagecheckerboard="0"
   inkscape:deskcolor="#d1d1d1"
   inkscape:zoom="24.069915"
   inkscape:cx="17.469941"
   inkscape:cy="6.7511664"
   inkscape:window-width="1920"
   inkscape:window-height="1177"
   inkscape:window-x="1912"
   inkscape:window-y="-8"
   inkscape:window-maximized="1"
   inkscape:current-layer="Layer_1" />
<path
   d="m 8.6613898,-0.01392913 h -6.63639 V 6.5038362 7.4461638 13.963929 H 11.925 V 3.4031703 Z M 8.9249999,1.5947181 10.38861,3.1271626 H 8.9249999 Z M 2.9249998,13.021601 V 7.4461638 6.5038991 0.92839828 h 5.1 V 4.0694901 H 11.025 v 8.9521109 z"
   id="path1"
   style="stroke-width:0.0306974;fill:#000000;fill-opacity:1"
   sodipodi:nodetypes="ccccccccccccccccccccc" />
<g
   id="g1"
   transform="matrix(0.53836228,0,0,0.53836228,2.8013678,5.3798579)"><g
     transform="matrix(0.58125,0,0,0.58125,19.7625,-0.58125)"
     id="g3"><rect
       fill="#c4a000"
       height="11"
       rx="2.0114901"
       width="11"
       x="-20"
       y="13"
       id="rect1" /><g
       fill="#fcffff"
       id="g2"><path
         d="m -15,14 v 2.0625 c -0.537663,0.111041 -1.024662,0.383291 -1.375,0.78125 l -1.78125,-1.03125 -0.5,0.875 1.78125,1.03125 C -16.957063,17.966182 -17,18.225145 -17,18.5 c 0,0.274855 0.04294,0.533818 0.125,0.78125 l -1.78125,1.03125 0.5,0.875 1.78125,-1.03125 c 0.352503,0.40042 0.832682,0.670182 1.375,0.78125 V 23 h 1 v -2.0625 c 0.537663,-0.111041 1.024662,-0.383291 1.375,-0.78125 l 1.78125,1.03125 0.5,-0.875 -1.78125,-1.03125 C -12.042937,19.033818 -12,18.774855 -12,18.5 c 0,-0.274855 -0.04294,-0.533818 -0.125,-0.78125 l 1.78125,-1.03125 -0.5,-0.875 -1.78125,1.03125 C -12.977503,16.44333 -13.457682,16.173568 -14,16.0625 V 14 Z m 0.5,3.5 c 0.552,0 1,0.448 1,1 0,0.552 -0.448,1 -1,1 -0.552,0 -1,-0.448 -1,-1 0,-0.552 0.448,-1 1,-1 z"
         id="path1-9" /><path
         d="m -19,19 9,-0.0096 c 0,0 0,0 0,-2 C -10,14 -11,14 -14.5,14 -18,14 -19,14 -19,17 Z"
         fill-rule="evenodd"
         opacity="0.3"
         id="path2" /></g></g><g
     fill="#8cbe8c"
     stroke-linecap="round"
     id="g5"
     transform="matrix(0.58125,0,0,0.58125,0.58125,-0.58125)"><rect
       height="5"
       rx="3.125"
       stroke="#4c4d4c"
       stroke-opacity="0.933333"
       width="5"
       x="1.5"
       y="9.5"
       id="rect3" /><rect
       height="5"
       rx="3.125"
       stroke="#4b4c4b"
       stroke-opacity="0.956863"
       width="5"
       x="8.5"
       y="1.5"
       id="rect4" /><rect
       height="5"
       rx="3.125"
       stroke="#4c4d4c"
       stroke-opacity="0.933333"
       width="5"
       x="17.5"
       y="3.5"
       id="rect5" /></g></g><path
   style="fill:#ffffff;fill-opacity:1;stroke:#111111;stroke-width:0.0830913;stroke-linecap:round;paint-order:markers stroke fill"
   d="M 5.0477952,11.985917 V 1.5995071 h 4.3622921 4.3622917 v 2.7004666 2.7004665 h 2.596603 2.596602 v 7.6859438 7.685943 H 12.00669 5.0477952 Z m 12.6654188,9.536121 c 0.122375,-0.06778 0.27715,-0.189303 0.343945,-0.270047 0.236439,-0.285815 0.243718,-0.362778 0.243463,-2.57438 -1.43e-4,-1.245167 -0.01648,-2.076309 -0.04266,-2.170586 -0.07313,-0.263282 -0.290426,-0.535396 -0.538743,-0.674641 l -0.228501,-0.128132 h -2.1396 c -2.436935,0 -2.383522,-0.0067 -2.700357,0.337058 -0.325773,0.353422 -0.311702,0.235477 -0.311702,2.612682 0,2.40182 -0.0068,2.346872 0.329053,2.676443 0.3445,0.338102 0.3283,0.336171 2.724551,0.324799 l 2.098055,-0.01 z M 8.1727778,16.670876 c 0.2802208,-0.128724 0.6097354,-0.42394 0.7606736,-0.681496 0.3521735,-0.600938 0.2384452,-1.462053 -0.2587607,-1.959258 -0.6549609,-0.654962 -1.7486343,-0.629631 -2.37434,0.05499 -0.2969068,0.324864 -0.3979676,0.60326 -0.3992452,1.099819 -9.159e-4,0.355951 0.011554,0.421185 0.1270706,0.66473 0.2184967,0.460662 0.486353,0.704901 0.95476,0.870578 0.3498544,0.123745 0.8589827,0.102623 1.1898417,-0.04936 z m 8.6435782,-3.241043 c 0.290512,-0.134019 0.643179,-0.476996 0.770068,-0.74891 0.398064,-0.853024 0.06427,-1.808422 -0.776062,-2.221268 -0.210128,-0.103234 -0.27757,-0.114791 -0.669881,-0.114791 -0.404184,0 -0.456753,0.0097 -0.715614,0.13235 -1.307294,0.619291 -1.214827,2.504141 0.147637,3.00943 0.32388,0.120115 0.919276,0.09292 1.243852,-0.05681 z m -4.830439,-1.084731 c 0.315759,-0.159191 0.633848,-0.483449 0.776019,-0.791069 0.105041,-0.227284 0.117212,-0.298916 0.117212,-0.689848 0,-0.386336 -0.01274,-0.4634 -0.111345,-0.67379 -0.155479,-0.3317253 -0.447221,-0.6288792 -0.77665,-0.7910564 -0.255913,-0.1259854 -0.301696,-0.134661 -0.710638,-0.134661 -0.408129,0 -0.455249,0.00888 -0.710852,0.1339556 -0.329695,0.1613317 -0.6221832,0.4589235 -0.7781842,0.7917618 -0.09861,0.21039 -0.1113448,0.287454 -0.1113448,0.67379 0,0.390698 0.01214,0.462247 0.1163074,0.685503 0.1886359,0.404291 0.5893316,0.75496 1.0261976,0.898078 0.05712,0.01871 0.29082,0.02919 0.519321,0.02328 0.358826,-0.0093 0.446602,-0.02645 0.643957,-0.125944 z"
   id="path3"
   transform="scale(0.58125)" /><path
   style="fill:#fcfcfc;fill-opacity:1;stroke:#111111;stroke-width:0.0830913;stroke-linecap:round;paint-order:markers stroke fill"
   d="M 15.392659,4.1030835 V 2.8260066 l 0.222987,0.2280495 c 0.582904,0.5961398 2.18666,2.2869395 2.18666,2.3053404 0,0.01142 -0.54217,0.020764 -1.204823,0.020764 h -1.204824 z"
   id="path4"
   transform="scale(0.58125)" /></svg>
