<?xml version="1.0" encoding="UTF-8" standalone="no"?>
<!-- Uploaded to: SVG Repo, www.svgrepo.com, Generator: SVG Repo Mixer Tools -->

<svg
   fill="#000000"
   height="24"
   width="24"
   version="1.1"
   id="Layer_1"
   viewBox="0 0 13.95 13.95"
   xml:space="preserve"
   sodipodi:docname="import-svgrepo-com.svg"
   inkscape:version="1.3.2 (091e20e, 2023-11-25, custom)"
   xmlns:inkscape="http://www.inkscape.org/namespaces/inkscape"
   xmlns:sodipodi="http://sodipodi.sourceforge.net/DTD/sodipodi-0.dtd"
   xmlns="http://www.w3.org/2000/svg"
   xmlns:svg="http://www.w3.org/2000/svg"><defs
   id="defs1" /><sodipodi:namedview
   id="namedview1"
   pagecolor="#ffffff"
   bordercolor="#000000"
   borderopacity="0.25"
   inkscape:showpageshadow="2"
   inkscape:pageopacity="0.0"
   inkscape:pagecheckerboard="0"
   inkscape:deskcolor="#d1d1d1"
   inkscape:zoom="8.51"
   inkscape:cx="24.030552"
   inkscape:cy="7.8143361"
   inkscape:window-width="1920"
   inkscape:window-height="1177"
   inkscape:window-x="1912"
   inkscape:window-y="-8"
   inkscape:window-maximized="1"
   inkscape:current-layer="Layer_1" />
<path
   d="m 8.6613898,-0.01392913 h -6.63639 V 6.5038362 7.4461638 13.963929 H 11.925 V 3.4031703 Z M 8.9249999,1.5947181 10.38861,3.1271626 H 8.9249999 Z M 2.9249998,13.021601 V 7.4461638 6.5038991 0.92839828 h 5.1 V 4.0694901 H 11.025 v 8.9521109 z"
   id="path1"
   style="stroke-width:0.0306974"
   sodipodi:nodetypes="ccccccccccccccccccccc" />
<g
   id="g1"
   transform="matrix(0.53836228,0,0,0.53836228,2.8013678,5.3798579)"><g
     transform="matrix(0.58125,0,0,0.58125,19.7625,-0.58125)"
     id="g3"><rect
       fill="#c4a000"
       height="11"
       rx="2.0114901"
       width="11"
       x="-20"
       y="13"
       id="rect1" /><g
       fill="#fcffff"
       id="g2"><path
         d="m -15,14 v 2.0625 c -0.537663,0.111041 -1.024662,0.383291 -1.375,0.78125 l -1.78125,-1.03125 -0.5,0.875 1.78125,1.03125 C -16.957063,17.966182 -17,18.225145 -17,18.5 c 0,0.274855 0.04294,0.533818 0.125,0.78125 l -1.78125,1.03125 0.5,0.875 1.78125,-1.03125 c 0.352503,0.40042 0.832682,0.670182 1.375,0.78125 V 23 h 1 v -2.0625 c 0.537663,-0.111041 1.024662,-0.383291 1.375,-0.78125 l 1.78125,1.03125 0.5,-0.875 -1.78125,-1.03125 C -12.042937,19.033818 -12,18.774855 -12,18.5 c 0,-0.274855 -0.04294,-0.533818 -0.125,-0.78125 l 1.78125,-1.03125 -0.5,-0.875 -1.78125,1.03125 C -12.977503,16.44333 -13.457682,16.173568 -14,16.0625 V 14 Z m 0.5,3.5 c 0.552,0 1,0.448 1,1 0,0.552 -0.448,1 -1,1 -0.552,0 -1,-0.448 -1,-1 0,-0.552 0.448,-1 1,-1 z"
         id="path1-9" /><path
         d="m -19,19 9,-0.0096 c 0,0 0,0 0,-2 C -10,14 -11,14 -14.5,14 -18,14 -19,14 -19,17 Z"
         fill-rule="evenodd"
         opacity="0.3"
         id="path2" /></g></g><g
     fill="#8cbe8c"
     stroke-linecap="round"
     id="g5"
     transform="matrix(0.58125,0,0,0.58125,0.58125,-0.58125)"><rect
       height="5"
       rx="3.125"
       stroke="#4c4d4c"
       stroke-opacity="0.933333"
       width="5"
       x="1.5"
       y="9.5"
       id="rect3" /><rect
       height="5"
       rx="3.125"
       stroke="#4b4c4b"
       stroke-opacity="0.956863"
       width="5"
       x="8.5"
       y="1.5"
       id="rect4" /><rect
       height="5"
       rx="3.125"
       stroke="#4c4d4c"
       stroke-opacity="0.933333"
       width="5"
       x="17.5"
       y="3.5"
       id="rect5" /></g></g></svg>
