<?xml version="1.0" encoding="UTF-8" standalone="no"?>
<svg
   width="24"
   height="24"
   version="1.1"
   id="svg9"
   sodipodi:docname="mActionElevationProfile.svg"
   inkscape:export-filename="mActionElevationProfile.png"
   inkscape:export-xdpi="96"
   inkscape:export-ydpi="96"
   inkscape:version="1.3.2 (091e20e, 2023-11-25, custom)"
   xmlns:inkscape="http://www.inkscape.org/namespaces/inkscape"
   xmlns:sodipodi="http://sodipodi.sourceforge.net/DTD/sodipodi-0.dtd"
   xmlns="http://www.w3.org/2000/svg"
   xmlns:svg="http://www.w3.org/2000/svg">
  <defs
     id="defs9" />
  <sodipodi:namedview
     id="namedview9"
     pagecolor="#ffffff"
     bordercolor="#000000"
     borderopacity="0.25"
     inkscape:showpageshadow="2"
     inkscape:pageopacity="0.0"
     inkscape:pagecheckerboard="0"
     inkscape:deskcolor="#d1d1d1"
     inkscape:zoom="12.536414"
     inkscape:cx="15.913642"
     inkscape:cy="7.8571113"
     inkscape:window-width="1920"
     inkscape:window-height="1177"
     inkscape:window-x="1912"
     inkscape:window-y="-8"
     inkscape:window-maximized="1"
     inkscape:current-layer="svg9" />
  <path
     fill="#e6e6e6"
     d="M2.5 2.5h19v19h-19z"
     style="stroke-width:1;stroke:none"
     id="path1" />
  <path
     d="M9 3v18H8V3Zm7 0v18h-1V3Z"
     style="fill:#d0d0d0;fill-opacity:1;stroke-width:2.00001;stroke-linecap:round;stroke-linejoin:round;stroke-opacity:.206937"
     id="path2" />
  <path
     d="M21 9H3V8h18Zm0 7H3v-1h18Z"
     style="fill:#d0d0d0;fill-opacity:1;stroke-width:2.00001;stroke-linecap:round;stroke-linejoin:round;stroke-opacity:.206937"
     id="path3" />
  <path
     d="M21.369 11.051s-.92-1.355-1.438-2.143c-.519-.788-1.082-3.313-2.338-3.3-1.375.014-2.058 2.21-2.497 3.664-.34 1.122-.931 2.17-2.209 2.564-.947.292-1.638 1.827-2.711 2.086-1.195.29-2.429-1.076-3.61-.722-1.594.479-3.777 3.575-3.777 3.575l-.16 4.769 18.772-.084z"
     style="fill:#316349;fill-opacity:.25349277;stroke:none;stroke-width:1;stroke-linecap:round;stroke-linejoin:round;stroke-dasharray:none;stroke-opacity:1"
     id="path4" />
  <path
     d="M2.789 16.775s2.183-3.096 3.777-3.575c1.181-.354 2.415 1.012 3.61.722 1.073-.259 1.764-1.794 2.711-2.086 1.278-.394 1.869-1.442 2.209-2.564.439-1.454 1.122-3.65 2.497-3.664 1.256-.013 1.819 2.512 2.338 3.3.518.788 1.438 2.143 1.438 2.143"
     style="fill:none;fill-opacity:1;stroke:#005338;stroke-width:1;stroke-linecap:round;stroke-linejoin:round;stroke-dasharray:none;stroke-opacity:1"
     id="path5" />
  <path
     d="M2 2v20h20V2Zm1 1h18v18H3Z"
     style="color:#000;fill:#6e97c4;-inkscape-stroke:none"
     id="path6" />
  <path
     style="fill:none;stroke:#ffc100;stroke-width:1;stroke-linejoin:bevel;stroke-opacity:1;paint-order:markers stroke fill;stroke-dasharray:4,1;stroke-dashoffset:0"
     d="m 3,8 18.369,3.051"
     id="path9" />
</svg>
