<?xml version="1.0" encoding="UTF-8" standalone="no"?>
<!-- Created with Inkscape (http://www.inkscape.org/) -->

<svg
   width="24"
   height="24"
   viewBox="0 0 6.3499999 6.35"
   version="1.1"
   id="svg1"
   inkscape:version="1.3.2 (091e20e, 2023-11-25, custom)"
   sodipodi:docname="set_temporary_camera_position.svg"
   xml:space="preserve"
   inkscape:export-filename="set_temporary_camera_position.png"
   inkscape:export-xdpi="96"
   inkscape:export-ydpi="96"
   xmlns:inkscape="http://www.inkscape.org/namespaces/inkscape"
   xmlns:sodipodi="http://sodipodi.sourceforge.net/DTD/sodipodi-0.dtd"
   xmlns="http://www.w3.org/2000/svg"
   xmlns:svg="http://www.w3.org/2000/svg"><sodipodi:namedview
     id="namedview1"
     pagecolor="#ffffff"
     bordercolor="#000000"
     borderopacity="0.25"
     inkscape:showpageshadow="2"
     inkscape:pageopacity="0.0"
     inkscape:pagecheckerboard="0"
     inkscape:deskcolor="#d1d1d1"
     inkscape:document-units="mm"
     inkscape:zoom="5.5517958"
     inkscape:cx="4.5931085"
     inkscape:cy="-17.201641"
     inkscape:window-width="1920"
     inkscape:window-height="1177"
     inkscape:window-x="1912"
     inkscape:window-y="-8"
     inkscape:window-maximized="1"
     inkscape:current-layer="g1" /><defs
     id="defs1" /><g
     inkscape:label="Ebene 1"
     inkscape:groupmode="layer"
     id="layer1"><g
       id="g2"
       transform="matrix(1.2003571,0,0,1.2003571,-0.63613379,-0.70731079)"><g
         stroke-linecap="round"
         stroke-linejoin="round"
         id="g3"
         transform="matrix(0.25191156,0,0,0.23939853,0.27799192,0.30220587)"><path
           d="M 15.619,1.5002 C 12.7551,1.50432 10.3109,3.615 9.8326,6.4983 9.01416,5.1386 7.5634,4.31 6.0004,4.3095 3.5149,4.3093648 1.5,6.3668 1.5002,8.9047 c -9.373e-4,2.2916 1.6518,4.2336 3.8742,4.5522 l 0.21041,0.04313 h 10.226 v -0.0057 c 3.1699,-0.10297 5.6878,-2.756 5.6891,-5.9945 -9.8e-5,-3.3136 -2.6307,-5.9998 -5.8758,-5.9998 z"
           fill="#e6e6e6"
           stroke="#9a9a9a"
           id="path1" /><ellipse
           cx="15.641"
           cy="7.4558001"
           rx="1.9686"
           ry="1.932"
           fill="#6d97c4"
           stroke="#415a75"
           id="ellipse2" /><ellipse
           cx="6"
           cy="9"
           rx="1.9686"
           ry="1.932"
           fill="#6d97c4"
           stroke="#415a75"
           id="ellipse3" /></g><path
         d="m 1.2344985,3.581104 v 0.8074339 h 0.5029369 v 0.8074338 c -0.00655,0.5419226 0.00806,0.6164017 0.5128451,0.6164017 H 4.262028 C 4.7616707,5.8123269 4.7550568,5.7362502 4.7550568,5.1959717 V 4.926827 L 5.7609306,5.7342608 V 3.581104 L 4.7550568,4.3885379 V 3.581104 Z"
         fill="#141414"
         stroke="#2e2e2e"
         id="path2-5"
         style="fill:#9b9b9b;fill-opacity:1;stroke:#686868;stroke-width:0.116754;stroke-dasharray:none;stroke-opacity:1"
         sodipodi:nodetypes="ccccscscccccc" /></g><g
       id="g1"
       transform="matrix(0.63636365,0,0,0.63636365,0.33910727,1.8501106)"><g
         id="g4"
         transform="matrix(0.9,0,0,0.9,0.35657038,0.49935498)"><path
           d="m 3.2028424,2.7468511 h 2.6371399 c 0.4199315,0 0.7601101,0.3401786 0.7601101,0.7604881 v 2.6371399 c 0,0.4199316 -0.3401786,0.7601101 -0.7604881,0.7601101 H 3.2024644 c -0.4199314,0 -0.76011,-0.3401785 -0.76011,-0.7604881 V 3.5069612 c 0,-0.4199315 0.3401786,-0.7601101 0.760488,-0.7601101 z"
           fill="#c4a000"
           id="path20"
           style="stroke-width:0.377976" /><path
           d="m 2.8203305,5.0147082 3.4017858,-0.00379 c 0,0 0,0 0,-0.7559524 0,-1.1301487 -0.3779763,-1.1301487 -1.7008929,-1.1301487 -1.3229167,0 -1.7008929,0 -1.7008929,1.1339284 z"
           fill="#fcffff"
           opacity="0.3"
           id="path21"
           style="stroke-width:0.377976" /><path
           d="M 3.7924853,4.8582261 5.6589317,3.290381 6.0429555,3.6906577 4.5457918,5.5329135 Z"
           fill="#fcffff"
           stroke="#fcffff"
           stroke-linejoin="round"
           stroke-width="0.094494"
           id="path22" /><path
           d="M 3.463268,5.0698928 4.2710031,5.893125 2.9855061,6.3557678 Z"
           fill="#fcffff"
           stroke="#fcffff"
           stroke-linejoin="round"
           stroke-width="0.094494"
           id="path23" /></g></g></g></svg>
