<?xml version="1.0" encoding="UTF-8" standalone="no"?>
<svg
   height="24"
   width="24"
   version="1.1"
   id="svg7"
   sodipodi:docname="sync_views.svg"
   inkscape:version="1.3.2 (091e20e, 2023-11-25, custom)"
   inkscape:export-filename="sync_views.png"
   inkscape:export-xdpi="96"
   inkscape:export-ydpi="96"
   xmlns:inkscape="http://www.inkscape.org/namespaces/inkscape"
   xmlns:sodipodi="http://sodipodi.sourceforge.net/DTD/sodipodi-0.dtd"
   xmlns="http://www.w3.org/2000/svg"
   xmlns:svg="http://www.w3.org/2000/svg">
  <defs
     id="defs7" />
  <sodipodi:namedview
     id="namedview7"
     pagecolor="#ffffff"
     bordercolor="#000000"
     borderopacity="0.25"
     inkscape:showpageshadow="2"
     inkscape:pageopacity="0.0"
     inkscape:pagecheckerboard="0"
     inkscape:deskcolor="#d1d1d1"
     inkscape:zoom="17.729167"
     inkscape:cx="14.693302"
     inkscape:cy="10.40658"
     inkscape:window-width="1920"
     inkscape:window-height="1177"
     inkscape:window-x="1912"
     inkscape:window-y="-8"
     inkscape:window-maximized="1"
     inkscape:current-layer="svg7" />
  <linearGradient
     id="a"
     gradientTransform="matrix(1 0 0 1.00003 0 -8)"
     gradientUnits="userSpaceOnUse"
     x1="3.5"
     x2="11.5"
     y1="19.5"
     y2="19.5">
    <stop
       offset="0"
       stop-color="#b7b7b7"
       id="stop1" />
    <stop
       offset="1"
       stop-color="#e6e6e6"
       id="stop2" />
  </linearGradient>
  <path
     d="m21.5 21.5h-17c-1 0-1.978-1.42-2-2.5v-16.5h19z"
     fill="url(#a)"
     fill-rule="evenodd"
     stroke="#9a9a9a"
     id="path2" />
  <path
     d="m29.228 15.13c.633.624 1.828 1.29 2.456 1.29h10.737m3.579-13.42-3.579 3.574h-9.841m9.841 0v9.846l3.58 3.58"
     fill="none"
     stroke="#373737"
     stroke-width=".895"
     transform="matrix(1.11762 0 0 1.11721 -29.91 -.844)"
     id="path3" />
  <path
     d="m21.5 21.5h-17c-1 0-1.978-1.42-2-2.5v-16.5h19z"
     fill="none"
     stroke="#9a9a9a"
     id="path4" />
  <path
     d="m6.5 2c-1-1-3-1-4 0v16c1-1 3-1 4 0z"
     fill="#e6e6e6"
     fill-rule="evenodd"
     stroke="#9a9a9a"
     id="path5" />
  <path
     d="m17.5.5 6 6.5-6 6.5v-5h-3.999c-4.749 1.5-4.498 4.66-4.024 5.955-.663-1.26-.977-1.101-.977-3.455 0-2.104 1.882-5.5 5-5.5h4z"
     fill="#e37e39"
     fill-rule="evenodd"
     id="path6" />
  <path
     d="m9.5 1031.862-6 6.5 6 6.5v-5h3.998c5.235 1.5 3.998 4.546 3.998 6 .474-.474 1.002-.985 1.002-3.5 0-2.104-2.276-5.5-5-5.5h-3.998z"
     fill="none"
     stroke="#d06935"
     stroke-linejoin="round"
     transform="matrix(-1.00013 0 0 1 27.001 -1031.367)"
     id="path7" />
</svg>
